<svg width='current' height='current' viewBox="0 0 24 24" fill="none" xmlns="http://www.w3.org/2000/svg">
<path d="M20.222 0C21.628 0 22.762 1.137 22.829 2.475V24L20.152 21.727L18.682 20.389L17.078 18.991L17.748 21.196H3.71001C2.30801 21.196 1.17001 20.131 1.17001 18.72V2.48C1.17001 1.142 2.31001 0.003 3.71501 0.003H20.215L20.222 0ZM14.104 5.683H14.074L13.872 5.883C15.945 6.483 16.948 7.42 16.948 7.42C15.612 6.752 14.408 6.418 13.204 6.283C12.334 6.148 11.464 6.219 10.729 6.283H10.529C10.059 6.283 9.05901 6.483 7.71901 7.018C7.25201 7.221 6.98401 7.354 6.98401 7.354C6.98401 7.354 7.98601 6.352 10.194 5.817L10.059 5.682C10.059 5.682 8.38701 5.618 6.58201 6.952C6.58201 6.952 4.77701 10.096 4.77701 13.972C4.77701 13.972 5.77701 15.712 8.52001 15.778C8.52001 15.778 8.92001 15.245 9.32501 14.776C7.78501 14.308 7.18501 13.372 7.18501 13.372C7.18501 13.372 7.31901 13.438 7.52001 13.572H7.58001C7.61001 13.572 7.62401 13.587 7.64001 13.602V13.608C7.65601 13.624 7.67001 13.638 7.70001 13.638C8.03001 13.774 8.36001 13.908 8.63001 14.038C9.09601 14.24 9.69501 14.441 10.43 14.574C11.36 14.709 12.426 14.774 13.64 14.574C14.24 14.439 14.84 14.307 15.44 14.039C15.83 13.839 16.31 13.639 16.837 13.302C16.837 13.302 16.237 14.238 14.632 14.706C14.962 15.172 15.427 15.706 15.427 15.706C18.171 15.646 19.237 13.906 19.297 13.98C19.297 10.11 17.482 6.96 17.482 6.96C15.847 5.746 14.317 5.7 14.047 5.7L14.103 5.68L14.104 5.683ZM14.272 10.096C14.975 10.096 15.542 10.696 15.542 11.431C15.542 12.171 14.972 12.771 14.272 12.771C13.572 12.771 13.002 12.171 13.002 11.437C13.004 10.697 13.575 10.099 14.272 10.099V10.096ZM9.72901 10.096C10.429 10.096 10.995 10.696 10.995 11.431C10.995 12.171 10.425 12.771 9.72501 12.771C9.02501 12.771 8.45501 12.171 8.45501 11.437C8.45501 10.697 9.02501 10.099 9.72501 10.099L9.72901 10.096Z" fill="#4A5568"/>
</svg>
