<svg width='current' height='current' viewBox="0 0 24 24" fill="none" xmlns="http://www.w3.org/2000/svg">
<path d="M3.84 0H20.16C21.1784 0 22.1552 0.40457 22.8753 1.12471C23.5954 1.84485 24 2.82157 24 3.84V20.16C24 21.1784 23.5954 22.1552 22.8753 22.8753C22.1552 23.5954 21.1784 24 20.16 24H3.84C2.82157 24 1.84485 23.5954 1.12471 22.8753C0.40457 22.1552 0 21.1784 0 20.16L0 3.84C0 2.82157 0.40457 1.84485 1.12471 1.12471C1.84485 0.40457 2.82157 0 3.84 0V0ZM18.015 21.638L18.011 21.637C18.6655 21.6213 19.2895 21.3571 19.7562 20.8981C20.223 20.4391 20.4975 19.8196 20.5241 19.1655C20.5507 18.5113 20.3274 17.8716 19.8994 17.3762C19.4715 16.8808 18.871 16.5668 18.22 16.498L13.303 7.816C12.584 6.524 11.195 6.58 10.694 8.414C10.264 10.15 10.375 11.786 10.25 13.762C10.249 13.775 10.24 13.786 10.227 13.789C10.214 13.792 10.201 13.787 10.194 13.776L5.804 5.025C6.162 4.744 6.372 4.314 6.373 3.858C6.373 3.56944 6.28743 3.28735 6.12711 3.04742C5.9668 2.80749 5.73893 2.62049 5.47234 2.51006C5.20574 2.39963 4.91238 2.37074 4.62936 2.42703C4.34634 2.48333 4.08638 2.62229 3.88233 2.82633C3.67829 3.03038 3.53933 3.29035 3.48303 3.57336C3.42674 3.85638 3.45563 4.14974 3.56606 4.41634C3.67649 4.68293 3.86349 4.9108 4.10342 5.07111C4.34335 5.23143 4.62544 5.317 4.914 5.317C4.983 5.317 5.039 5.303 5.094 5.303C6.942 10.053 8.998 15.596 9.734 16.874C10.234 18.096 11.943 17.707 11.985 16.388L12.165 9.456C12.165 9.414 12.22 9.414 12.235 9.442L15.761 17.831C15.5472 18.2225 15.4389 18.6629 15.4467 19.1089C15.4545 19.555 15.5781 19.9913 15.8054 20.3751C16.0327 20.7589 16.3559 21.0771 16.7433 21.2983C17.1307 21.5195 17.5689 21.6362 18.015 21.637V21.638Z" fill="#4A5568"/>
</svg>
