<svg width='current' height='current' viewBox="0 0 24 24" fill="none" xmlns="http://www.w3.org/2000/svg">
<g clip-path="url(#clip0)">
<path d="M6.9805 0.554717C6.94503 0.554994 6.90967 0.558915 6.875 0.566417C6.5877 0.628317 6.4046 0.910117 6.4668 1.19732C6.5287 1.48412 6.8108 1.66732 7.0977 1.60552C7.23571 1.57568 7.35624 1.49227 7.43278 1.37361C7.50932 1.25495 7.53562 1.11076 7.5059 0.972717C7.4517 0.721717 7.2277 0.552117 6.9805 0.554717V0.554717ZM13.4355 1.19342C13.2544 1.19274 13.0767 1.24205 12.9219 1.33592C12.4521 1.61772 12.2982 2.22572 12.5801 2.69532C12.8623 3.16492 13.472 3.31692 13.9414 3.03522C14.4112 2.75312 14.5631 2.14512 14.2813 1.67582C14.1937 1.52947 14.0698 1.40819 13.9217 1.32369C13.7735 1.23919 13.6061 1.19432 13.4355 1.19342V1.19342ZM10.4063 3.42972C9.4319 3.43442 8.4498 3.72172 7.5859 4.31842C6.7114 4.92252 6.0894 5.75442 5.7383 6.67772C5.2298 6.74662 4.7287 6.91672 4.2773 7.22852C2.7855 8.25922 2.3913 10.2676 3.3379 11.791C2.0533 12.9672 1.7564 14.9266 2.7324 16.4395C3.3114 17.3365 4.2206 17.8765 5.1973 18.0371C5.2153 18.7691 5.4353 19.5031 5.8828 20.1504C7.1068 21.9213 9.5354 22.3661 11.3066 21.1426C11.3743 21.0956 11.4264 21.0365 11.4902 20.9863C12.4774 21.8672 13.961 22.0118 15.0977 21.2266C15.7042 20.8077 16.0906 20.1974 16.2597 19.5352C17.1492 19.5678 18.0553 19.3417 18.8437 18.7969C20.7353 17.4902 21.2432 14.9354 20.0332 13.0079C21.0045 12.1889 21.213 10.7565 20.4668 9.69922C20.1341 9.22742 19.664 8.91862 19.1504 8.76562C19.2256 7.78162 18.98 6.76772 18.375 5.89262C17.1958 4.18682 15.0423 3.56112 13.1797 4.23632C12.3521 3.7061 11.3891 3.42603 10.4062 3.42972H10.4063ZM4.8027 4.24612C4.65114 4.24772 4.50354 4.29467 4.3789 4.38092C4.0342 4.61922 3.9472 5.09062 4.1855 5.43552C4.4239 5.78022 4.8971 5.86722 5.2422 5.62892C5.32423 5.57243 5.39431 5.50031 5.44844 5.4167C5.50256 5.33309 5.53966 5.23963 5.55761 5.14166C5.57557 5.04369 5.57403 4.94315 5.55307 4.84578C5.53212 4.74841 5.49216 4.65613 5.4355 4.57422C5.365 4.47184 5.27042 4.38837 5.16007 4.33116C5.04972 4.27394 4.92699 4.24474 4.8027 4.24612V4.24612ZM20.797 6.61702C20.6286 6.61897 20.4646 6.67139 20.3263 6.76752C20.1887 6.86255 20.0825 6.99624 20.0209 7.15169C19.9593 7.30713 19.9452 7.47735 19.9804 7.6408C20.0156 7.80425 20.0984 7.95361 20.2185 8.06997C20.3385 8.18633 20.4904 8.26448 20.6549 8.29453C20.8193 8.32457 20.989 8.30517 21.1425 8.23877C21.2959 8.17237 21.4262 8.06196 21.5169 7.9215C21.6076 7.78104 21.6546 7.61684 21.652 7.44966C21.6493 7.28249 21.5972 7.11985 21.5021 6.98232C21.4235 6.86835 21.3181 6.77544 21.1951 6.71176C21.0722 6.64808 20.9355 6.61558 20.797 6.61712V6.61702ZM12.6466 7.64442C12.7095 7.64482 12.771 7.64972 12.8282 7.65812C13.0568 7.69172 13.1937 7.77712 13.2794 7.84562C13.4476 7.97982 13.552 8.08682 13.711 8.23822C13.9504 8.46572 14.1242 8.32722 14.2442 8.25772C14.4522 8.13682 14.6134 8.03962 15.2286 8.05072C15.8618 8.06172 16.5912 8.28732 16.7423 9.36712C16.9105 10.5665 14.7767 13.6562 14.9259 15.0897C15.0313 16.1 16.7405 15.3884 16.8849 16.3104C17.0721 17.5074 14.7496 17.0624 14.2189 16.8026C13.3869 16.3949 12.8819 15.4627 13.0978 14.5429C13.259 13.8547 14.7978 11.045 14.8556 10.6132C14.9143 10.1728 14.6783 10.1362 14.5314 10.1288C14.3419 10.119 14.192 10.2096 14.006 10.4901C13.8368 10.7459 11.924 14.5757 11.758 14.8886C11.4611 15.448 11.0882 15.5824 10.713 15.5624C10.1658 15.5339 9.9152 15.2418 9.9942 14.7147C10.0409 14.4047 11.2536 11.6656 11.3165 11.2382C11.3552 10.9739 11.3033 10.693 11.0411 10.5585C10.7786 10.4239 10.4698 10.6289 10.3771 10.7851C10.2491 11.0005 8.5289 15.4916 8.3458 15.8241C8.029 16.4001 7.695 16.5835 7.1935 16.6073C6.0073 16.6635 5.1279 15.6883 5.5157 14.4921C5.6887 13.9593 6.8316 9.92052 7.4103 8.89252C7.799 8.20152 8.8782 7.67602 9.627 8.00002C10.0148 8.16792 10.5522 8.43772 10.711 8.50782C11.077 8.67002 11.4704 8.23022 11.625 8.09572C11.7799 7.96122 11.9267 7.81922 12.1152 7.73832C12.2564 7.67782 12.4578 7.64362 12.6465 7.64452L12.6466 7.64442ZM23.5274 9.70112C23.4959 9.70185 23.4645 9.70577 23.4337 9.71282C23.3737 9.72561 23.3167 9.75011 23.2662 9.78492C23.2156 9.81972 23.1724 9.86416 23.139 9.91567C23.1056 9.96719 23.0827 10.0248 23.0716 10.0852C23.0605 10.1455 23.0614 10.2075 23.0743 10.2675C23.1007 10.3889 23.1741 10.4948 23.2785 10.5622C23.3828 10.6295 23.5095 10.6528 23.631 10.6269C23.8833 10.5723 24.045 10.3225 23.9903 10.0702C23.9672 9.96491 23.9086 9.87074 23.8243 9.80353C23.7401 9.73632 23.6352 9.70016 23.5274 9.70112V9.70112ZM1.0079 10.5116C0.84429 10.5101 0.682817 10.5488 0.537721 10.6245C0.392626 10.7001 0.268366 10.8102 0.1759 10.9452C-0.1364 11.4005 -0.0218004 12.0236 0.4337 12.3358C0.8892 12.6481 1.512 12.5314 1.8243 12.0761C2.1366 11.6208 2.022 10.9996 1.5665 10.6874C1.40204 10.5743 1.20748 10.5131 1.0079 10.5116V10.5116ZM22.3029 12.6054C22.2602 12.6057 22.2177 12.6102 22.1759 12.619C22.0953 12.6364 22.0189 12.6694 21.9512 12.7164C21.8834 12.7633 21.8255 12.8231 21.7809 12.8924C21.7362 12.9617 21.7057 13.0391 21.6911 13.1202C21.6764 13.2014 21.6779 13.2846 21.6954 13.3651C21.7127 13.4458 21.7456 13.5223 21.7925 13.5903C21.8393 13.6582 21.8991 13.7162 21.9684 13.7611C22.0377 13.8059 22.1152 13.8366 22.1963 13.8514C22.2775 13.8663 22.3608 13.865 22.4415 13.8476C22.7808 13.7743 22.9973 13.4406 22.9239 13.1015C22.8932 12.96 22.8147 12.8334 22.7016 12.7431C22.5885 12.6527 22.4477 12.6041 22.3029 12.6054V12.6054ZM4.0624 18.703C4.03148 18.7038 4.00072 18.7077 3.9706 18.7147C3.7199 18.769 3.5589 19.0165 3.6132 19.2675C3.6672 19.5185 3.9152 19.6772 4.1659 19.6229C4.22555 19.61 4.28207 19.5855 4.33223 19.5507C4.38239 19.5159 4.4252 19.4716 4.45822 19.4203C4.49123 19.3689 4.51381 19.3116 4.52465 19.2515C4.53549 19.1915 4.53439 19.1299 4.5214 19.0702C4.49879 18.9656 4.4408 18.8719 4.35719 18.805C4.27358 18.7381 4.16947 18.7021 4.0624 18.703ZM17.7382 20.2538C17.5294 20.2559 17.3259 20.3205 17.1542 20.4394C16.6784 20.7681 16.5597 21.4207 16.8886 21.8964C17.2174 22.372 17.8695 22.4907 18.3456 22.162C18.8214 21.8333 18.9401 21.1806 18.6112 20.705C18.5139 20.564 18.3833 20.449 18.2311 20.3703C18.0788 20.2916 17.9096 20.2516 17.7382 20.2538V20.2538ZM11.4002 22.1542C11.2716 22.1558 11.1464 22.1959 11.0409 22.2694C10.9711 22.3176 10.9115 22.3791 10.8655 22.4504C10.8195 22.5216 10.788 22.6012 10.7727 22.6847C10.7575 22.7681 10.7589 22.8538 10.7767 22.9367C10.7946 23.0196 10.8286 23.0982 10.8769 23.1679C10.9251 23.2377 10.9866 23.2973 11.0578 23.3433C11.1291 23.3893 11.2087 23.4208 11.2921 23.436C11.3756 23.4512 11.4612 23.4499 11.5441 23.432C11.627 23.4142 11.7055 23.3801 11.7753 23.3319C11.8451 23.2837 11.9047 23.2222 11.9507 23.151C11.9967 23.0797 12.0282 23.0001 12.0434 22.9167C12.0587 22.8333 12.0573 22.7477 12.0394 22.6647C12.0216 22.5818 11.9875 22.5033 11.9393 22.4335C11.8792 22.3464 11.7986 22.2753 11.7047 22.2266C11.6107 22.1779 11.5061 22.153 11.4003 22.1542H11.4002Z" fill="#4A5568"/>
</g>
<defs>
<clipPath id="clip0">
<rect width="24" height="24" fill="white"/>
</clipPath>
</defs>
</svg>
