<svg width='current' height='current' viewBox="0 0 24 24" fill="none" xmlns="http://www.w3.org/2000/svg">
<g clip-path="url(#clip0)">
<path d="M0 10.2C0 10.6774 0.189642 11.1352 0.527208 11.4728C0.864773 11.8104 1.32261 12 1.8 12H3.6C5.82782 12 7.96439 12.885 9.5397 14.4603C11.115 16.0356 12 18.1722 12 20.4V22.2C12 22.6774 12.1896 23.1352 12.5272 23.4728C12.8648 23.8104 13.3226 24 13.8 24H22.2C22.6774 24 23.1352 23.8104 23.4728 23.4728C23.8104 23.1352 24 22.6774 24 22.2V20.4C24 9.133 14.867 0 3.6 0H1.8C1.32261 0 0.864773 0.189642 0.527208 0.527208C0.189642 0.864773 0 1.32261 0 1.8L0 10.2V10.2Z" fill="#4A5568"/>
</g>
<defs>
<clipPath id="clip0">
<rect width="24" height="24" fill="white"/>
</clipPath>
</defs>
</svg>
