<svg width="32" height="32" viewBox="0 0 32 32" fill="none" xmlns="http://www.w3.org/2000/svg">
<path d="M5.33333 7.99999C5.33333 7.29275 5.61428 6.61447 6.11438 6.11438C6.61448 5.61428 7.29275 5.33333 8 5.33333H10.6667C11.3739 5.33333 12.0522 5.61428 12.5523 6.11438C13.0524 6.61447 13.3333 7.29275 13.3333 7.99999V10.6667C13.3333 11.3739 13.0524 12.0522 12.5523 12.5523C12.0522 13.0524 11.3739 13.3333 10.6667 13.3333H8C7.29275 13.3333 6.61448 13.0524 6.11438 12.5523C5.61428 12.0522 5.33333 11.3739 5.33333 10.6667V7.99999ZM18.6667 7.99999C18.6667 7.29275 18.9476 6.61447 19.4477 6.11438C19.9478 5.61428 20.6261 5.33333 21.3333 5.33333H24C24.7072 5.33333 25.3855 5.61428 25.8856 6.11438C26.3857 6.61447 26.6667 7.29275 26.6667 7.99999V10.6667C26.6667 11.3739 26.3857 12.0522 25.8856 12.5523C25.3855 13.0524 24.7072 13.3333 24 13.3333H21.3333C20.6261 13.3333 19.9478 13.0524 19.4477 12.5523C18.9476 12.0522 18.6667 11.3739 18.6667 10.6667V7.99999ZM5.33333 21.3333C5.33333 20.6261 5.61428 19.9478 6.11438 19.4477C6.61448 18.9476 7.29275 18.6667 8 18.6667H10.6667C11.3739 18.6667 12.0522 18.9476 12.5523 19.4477C13.0524 19.9478 13.3333 20.6261 13.3333 21.3333V24C13.3333 24.7072 13.0524 25.3855 12.5523 25.8856C12.0522 26.3857 11.3739 26.6667 10.6667 26.6667H8C7.29275 26.6667 6.61448 26.3857 6.11438 25.8856C5.61428 25.3855 5.33333 24.7072 5.33333 24V21.3333ZM18.6667 21.3333C18.6667 20.6261 18.9476 19.9478 19.4477 19.4477C19.9478 18.9476 20.6261 18.6667 21.3333 18.6667H24C24.7072 18.6667 25.3855 18.9476 25.8856 19.4477C26.3857 19.9478 26.6667 20.6261 26.6667 21.3333V24C26.6667 24.7072 26.3857 25.3855 25.8856 25.8856C25.3855 26.3857 24.7072 26.6667 24 26.6667H21.3333C20.6261 26.6667 19.9478 26.3857 19.4477 25.8856C18.9476 25.3855 18.6667 24.7072 18.6667 24V21.3333Z" stroke="#313048" stroke-width="2" stroke-linecap="round" stroke-linejoin="round"/>
</svg>
