<svg width="32" height="32" viewBox="0 0 32 32" fill="none" xmlns="http://www.w3.org/2000/svg">
<path d="M20.3327 2.66666C20.8389 2.66666 21.2573 3.04286 21.3236 3.53096L21.3327 3.66666L21.3334 6.76682C23.2923 7.16475 24.8352 8.70789 25.2327 10.6669L28.3327 10.6667C28.885 10.6667 29.3327 11.1144 29.3327 11.6667C29.3327 12.1729 28.9565 12.5913 28.4684 12.6575L28.3327 12.6667H25.3327V15H28.3327C28.8389 15 29.2573 15.3762 29.3236 15.8643L29.3327 16C29.3327 16.5063 28.9565 16.9246 28.4684 16.9909L28.3327 17H25.3327V19.3333H28.3327C28.8389 19.3333 29.2573 19.7095 29.3236 20.1976L29.3327 20.3333C29.3327 20.8396 28.9565 21.258 28.4684 21.3242L28.3327 21.3333L25.2324 21.3344C24.8345 23.2928 23.2918 24.8353 21.3334 25.2332L21.3327 28.3333C21.3327 28.8856 20.885 29.3333 20.3327 29.3333C19.8264 29.3333 19.408 28.9571 19.3418 28.469L19.3327 28.3333V25.332H16.998L16.9994 28.3333C16.9994 28.8396 16.6231 29.258 16.135 29.3242L15.9994 29.3333C15.4931 29.3333 15.0747 28.9571 15.0085 28.469L14.9994 28.3333L14.998 25.332H12.666V28.3333C12.666 28.8396 12.2898 29.258 11.8017 29.3242L11.666 29.3333C11.1598 29.3333 10.7414 28.9571 10.6751 28.469L10.666 28.3333L10.6666 25.2334C8.70719 24.8359 7.16373 23.2926 6.76602 21.3333H3.66602C3.11373 21.3333 2.66602 20.8856 2.66602 20.3333C2.66602 19.8271 3.04222 19.4087 3.53032 19.3425L3.66602 19.3333L6.66602 19.332V16.9987L3.66602 17C3.15975 17 2.74136 16.6238 2.67514 16.1357L2.66602 16C2.66602 15.4937 3.04222 15.0753 3.53032 15.0091L3.66602 15L6.66602 14.9987V12.6653L3.66602 12.6667C3.15975 12.6667 2.74136 12.2905 2.67514 11.8024L2.66602 11.6667C2.66602 11.1604 3.04222 10.742 3.53032 10.6758L3.66602 10.6667L6.76629 10.6654C7.16443 8.70665 8.70763 7.16395 10.6666 6.76655L10.666 3.66666C10.666 3.11437 11.1137 2.66666 11.666 2.66666C12.1723 2.66666 12.5907 3.04286 12.6569 3.53096L12.666 3.66666V6.66532H14.998L14.9994 3.66666C14.9994 3.1604 15.3756 2.742 15.8637 2.67579L15.9994 2.66666C16.5056 2.66666 16.924 3.04286 16.9902 3.53096L16.9994 3.66666L16.998 6.66532H19.3327V3.66666C19.3327 3.20642 19.6436 2.8188 20.0668 2.70238L20.197 2.67579L20.3327 2.66666ZM20.3327 8.66666H11.666C10.0092 8.66666 8.66602 10.0098 8.66602 11.6667V20.3333C8.66602 21.9902 10.0092 23.3333 11.666 23.3333H20.3327C21.9895 23.3333 23.3327 21.9902 23.3327 20.3333V11.6667C23.3327 10.0098 21.9895 8.66666 20.3327 8.66666ZM16.0059 12.0066C18.2151 12.0066 20.0059 13.7974 20.0059 16.0066C20.0059 18.2157 18.2151 20.0066 16.0059 20.0066C13.7968 20.0066 12.0059 18.2157 12.0059 16.0066C12.0059 13.7974 13.7968 12.0066 16.0059 12.0066ZM16.0059 14.0066C14.9014 14.0066 14.0059 14.902 14.0059 16.0066C14.0059 17.1111 14.9014 18.0066 16.0059 18.0066C17.1105 18.0066 18.0059 17.1111 18.0059 16.0066C18.0059 14.902 17.1105 14.0066 16.0059 14.0066Z" fill="#313048"/>
</svg>
