<svg width="32" height="32" viewBox="0 0 32 32" fill="none" xmlns="http://www.w3.org/2000/svg">
<path d="M11.6667 4H20.3333C20.8396 4 21.258 4.37621 21.3242 4.86431L21.3333 5V9.33333H23.6667C26.0599 9.33333 28 11.2734 28 13.6667V22.3333C28 24.7266 26.0599 26.6667 23.6667 26.6667H8.33333C5.9401 26.6667 4 24.7266 4 22.3333V13.6667C4 11.2734 5.9401 9.33333 8.33333 9.33333H10.6667V5C10.6667 4.49374 11.0429 4.07535 11.531 4.00913L11.6667 4H20.3333H11.6667ZM23.6667 11.3333H8.33333C7.04467 11.3333 6 12.378 6 13.6667V22.3333C6 23.622 7.04467 24.6667 8.33333 24.6667H23.6667C24.9553 24.6667 26 23.622 26 22.3333V13.6667C26 12.378 24.9553 11.3333 23.6667 11.3333ZM19.3333 6H12.6667V9.33333H19.3333V6Z" fill="#313048"/>
</svg>
