<svg width="32" height="32" viewBox="0 0 32 32" fill="none" xmlns="http://www.w3.org/2000/svg">
<path d="M13.6673 5.66671C14.2196 5.66671 14.6673 6.11442 14.6673 6.66671V17.3334H25.334C25.8402 17.3334 26.2586 17.7096 26.3248 18.1977L26.334 18.3334C26.334 24.9608 20.9614 29.6667 14.334 29.6667C7.70657 29.6667 2.33398 24.2941 2.33398 17.6667C2.33398 11.0393 7.0399 5.66671 13.6673 5.66671ZM12.6673 7.71604L12.3888 7.74767C7.46971 8.37544 4.33398 12.577 4.33398 17.6667C4.33398 23.1896 8.81113 27.6667 14.334 27.6667C19.4237 27.6667 23.6252 24.531 24.253 19.6119L24.2833 19.3334H13.6673C13.1611 19.3334 12.7427 18.9572 12.6764 18.4691L12.6673 18.3334V7.71604ZM17.6673 2.33337C24.2947 2.33337 29.6673 7.70596 29.6673 14.3334C29.6673 14.8857 29.2196 15.3334 28.6673 15.3334H17.6673C17.115 15.3334 16.6673 14.8857 16.6673 14.3334V3.33337C16.6673 2.78109 17.115 2.33337 17.6673 2.33337ZM18.6673 4.38271V13.3334H27.6166L27.5863 13.0548C27.012 8.55441 23.4463 4.98868 18.9459 4.41434L18.6673 4.38271Z" fill="#313048"/>
</svg>
