<svg width="32" height="32" viewBox="0 0 32 32" fill="none" xmlns="http://www.w3.org/2000/svg">
<path fill-rule="evenodd" clip-rule="evenodd" d="M4 8.33333C4 5.9401 5.9401 4 8.33333 4H23.6667C26.0599 4 28 5.9401 28 8.33333V16.0291C27.3824 15.6337 26.7113 15.3144 26 15.0847V13.3333H20.6667V15.0847C19.9554 15.3144 19.2843 15.6337 18.6667 16.0291V13.3333H13.3333V18.6667H16.0291C15.6337 19.2843 15.3144 19.9554 15.0847 20.6667H13.3333V26H15.0847C15.3144 26.7113 15.6337 27.3824 16.0291 28H8.33333C5.9401 28 4 26.0599 4 23.6667V8.33333ZM8.33333 6C7.04467 6 6 7.04467 6 8.33333V11.3333H11.3333V6H8.33333ZM6 13.3333H11.3333V18.6667H6V13.3333ZM20.6667 11.3333V6H23.6667C24.9553 6 26 7.04467 26 8.33333V11.3333H20.6667ZM18.6667 6V11.3333H13.3333V6H18.6667ZM6 20.6667H11.3333V26H8.33333C7.04467 26 6 24.9553 6 23.6667V20.6667Z" fill="#313048"/>
<path fill-rule="evenodd" clip-rule="evenodd" d="M16.667 20.838L17.2633 21.4117C18.3536 22.4608 18.3536 24.2058 17.2633 25.2549L16.667 25.8287C16.9344 26.5934 17.3212 27.2989 17.8041 27.9212L18.6067 27.6841C20.0699 27.2518 21.5969 28.133 21.9546 29.6163L22.1848 30.5709C22.5587 30.6339 22.9423 30.6667 23.3334 30.6667C23.7245 30.6667 24.1082 30.6339 24.482 30.5709L24.7122 29.6163C25.07 28.133 26.5969 27.2518 28.0602 27.6841L28.8627 27.9212C29.3456 27.2989 29.7324 26.5934 29.9998 25.8287L29.4035 25.2549C28.3132 24.2058 28.3132 22.4608 29.4035 21.4117L29.9998 20.838C29.7324 20.0733 29.3456 19.3677 28.8627 18.7454L28.0602 18.9826C26.5969 19.4149 25.07 18.5336 24.7122 17.0504L24.482 16.0958C24.1082 16.0328 23.7245 16 23.3334 16C22.9423 16 22.5587 16.0328 22.1848 16.0958L21.9546 17.0504C21.5969 18.5336 20.0699 19.4149 18.6067 18.9826L17.8041 18.7454C17.3212 19.3677 16.9344 20.0733 16.667 20.838ZM23.3334 25.3333C24.4009 25.3333 25.2663 24.4379 25.2663 23.3333C25.2663 22.2288 24.4009 21.3333 23.3334 21.3333C22.2659 21.3333 21.4005 22.2288 21.4005 23.3333C21.4005 24.4379 22.2659 25.3333 23.3334 25.3333Z" fill="#313048"/>
</svg>
