<svg width="32" height="32" viewBox="0 0 32 32" fill="none" xmlns="http://www.w3.org/2000/svg">
<path d="M16.0162 3C16.9949 3.01128 17.9697 3.12435 18.9249 3.33738C19.3419 3.43038 19.6538 3.77801 19.7011 4.20262L19.928 6.23841C20.0308 7.17315 20.82 7.88112 21.7608 7.88211C22.0137 7.8825 22.2639 7.82984 22.4976 7.72644L24.3651 6.90608C24.7535 6.73546 25.2073 6.82848 25.4972 7.13815C26.8468 8.57952 27.8519 10.3082 28.4369 12.1941C28.5631 12.6008 28.4179 13.0427 28.0752 13.2953L26.4198 14.5155C25.9477 14.8624 25.6688 15.4133 25.6688 15.9993C25.6688 16.5852 25.9477 17.1362 26.4209 17.4839L28.0776 18.7044C28.4205 18.957 28.5658 19.399 28.4396 19.8057C27.8548 21.6913 26.8503 23.4199 25.5015 24.8615C25.2118 25.1711 24.7584 25.2643 24.37 25.0942L22.4949 24.2727C21.9584 24.0379 21.3424 24.0723 20.8354 24.3653C20.3284 24.6583 19.991 25.1749 19.9266 25.757L19.7012 27.7925C19.6547 28.2123 19.3495 28.5576 18.9387 28.6553C17.0074 29.1148 14.9953 29.1148 13.064 28.6553C12.6532 28.5576 12.3481 28.2123 12.3016 27.7925L12.0765 25.76C12.0104 25.179 11.6725 24.664 11.1659 24.372C10.6593 24.08 10.0443 24.0457 9.5096 24.2792L7.6341 25.1009C7.24563 25.2711 6.79205 25.1777 6.50238 24.8679C5.15283 23.4246 4.14826 21.694 3.56427 19.8064C3.43848 19.3998 3.58382 18.9582 3.92646 18.7057L5.58424 17.4844C6.05642 17.1375 6.3353 16.5865 6.3353 16.0006C6.3353 15.4147 6.05642 14.8637 5.58362 14.5163L3.92688 13.2971C3.58373 13.0446 3.43826 12.6024 3.56449 12.1954C4.14949 10.3095 5.15459 8.58085 6.50417 7.13949C6.79412 6.82981 7.24792 6.73679 7.63633 6.90741L9.50349 7.72763C10.0408 7.96341 10.6584 7.92779 11.1677 7.63025C11.6748 7.33611 12.0124 6.81896 12.0776 6.23686L12.3043 4.20262C12.3517 3.7778 12.6638 3.43005 13.0811 3.33726C14.0374 3.12456 15.0133 3.01154 16.0162 3ZM16.0165 4.99986C15.4111 5.00699 14.8074 5.05924 14.2104 5.15602L14.0652 6.45891C13.9294 7.67157 13.2267 8.74803 12.1739 9.35871C11.1146 9.97756 9.82315 10.052 8.69944 9.55889L7.50172 9.03275C6.73915 9.9583 6.13219 11.0018 5.70469 12.1222L6.76843 12.9051C7.75351 13.6288 8.3353 14.7782 8.3353 16.0006C8.3353 17.223 7.75351 18.3724 6.76947 19.0954L5.70406 19.8803C6.13118 21.0027 6.73824 22.0482 7.50134 22.9755L8.70818 22.4468C9.82564 21.9589 11.1083 22.0303 12.1647 22.6392C13.2211 23.2482 13.9258 24.3223 14.064 25.5368L14.2093 26.8486C15.3955 27.0504 16.6073 27.0504 17.7935 26.8486L17.9387 25.5369C18.0731 24.3227 18.777 23.2449 19.8346 22.6337C20.8923 22.0224 22.1776 21.9507 23.2971 22.4406L24.503 22.9689C25.2654 22.043 25.8722 20.9993 26.2996 19.8786L25.2357 19.0948C24.2506 18.3711 23.6688 17.2217 23.6688 15.9993C23.6688 14.7769 24.2506 13.6275 25.2344 12.9046L26.2969 12.1215C25.8694 11.0008 25.2624 9.95712 24.4997 9.03141L23.3044 9.55649C22.8173 9.77201 22.2904 9.88294 21.7582 9.8821C19.7986 9.88005 18.1541 8.40473 17.9402 6.45843L17.7949 5.1556C17.2009 5.05893 16.6035 5.00682 16.0165 4.99986ZM18.101 10.6666C18.1937 10.6666 18.2824 10.6987 18.353 10.756L18.4169 10.8213L22.1208 15.5911C22.2809 15.7973 22.3038 16.0741 22.1894 16.3004L22.1208 16.4088L18.4169 21.1786C18.3601 21.2518 18.2803 21.3022 18.1918 21.3228L18.101 21.3333H14.4948C14.4049 21.3333 14.3176 21.303 14.2471 21.2473C14.0984 21.13 14.0554 20.9285 14.1323 20.7641L14.1808 20.6855L17.8781 16L13.7376 10.6666H18.101ZM12.9019 11.7386L15.1552 14.6733L14.1134 16L14.9651 17.0847C15.0796 17.2304 15.0789 17.4357 14.9636 17.5807L13.1819 19.8205C13.0443 19.9934 12.7927 20.0221 12.6198 19.8845L12.5539 19.8182L9.88504 16.4112C9.69587 16.1697 9.69591 15.8303 9.88515 15.5888L12.9019 11.7386Z" fill="#313048"/>
</svg>
