<svg width="32" height="32" viewBox="0 0 32 32" fill="none" xmlns="http://www.w3.org/2000/svg">
<path d="M24.9994 26.6667H6.99935C4.68864 26.6667 2.80035 24.8581 2.67288 22.5793L2.66602 22.3334V8.33337C2.66602 6.74555 3.89956 5.44585 5.46062 5.3403L5.66602 5.33337H22.3327C23.9205 5.33337 25.2202 6.56692 25.3258 8.12797L25.3327 8.33337V9.33337H26.3327C27.9205 9.33337 29.2202 10.5669 29.3258 12.128L29.3327 12.3334V22.3334C29.3327 24.6441 27.5241 26.5324 25.2452 26.6598L24.9994 26.6667H6.99935H24.9994ZM6.99935 24.6667H24.9994C26.2236 24.6667 27.2276 23.7239 27.325 22.5247L27.3327 22.3334V12.3334C27.3327 11.8271 26.9565 11.4087 26.4684 11.3425L26.3327 11.3334H25.3327V21.6667C25.3327 22.173 24.9565 22.5914 24.4684 22.6576L24.3327 22.6667C23.8264 22.6667 23.408 22.2905 23.3418 21.8024L23.3327 21.6667V8.33337C23.3327 7.82711 22.9565 7.40872 22.4684 7.3425L22.3327 7.33337H5.66602C5.15975 7.33337 4.74136 7.70958 4.67514 8.19768L4.66602 8.33337V22.3334C4.66602 23.5576 5.60883 24.5616 6.80798 24.659L6.99935 24.6667H24.9994H6.99935ZM16.3274 19.3334H20.3357C20.888 19.3334 21.3357 19.7811 21.3357 20.3334C21.3357 20.8396 20.9595 21.258 20.4714 21.3242L20.3357 21.3334H16.3274C15.7751 21.3334 15.3274 20.8857 15.3274 20.3334C15.3274 19.8271 15.7036 19.4087 16.1917 19.3425L16.3274 19.3334H20.3357H16.3274ZM12.3237 14.6727C12.876 14.6727 13.3237 15.1204 13.3237 15.6727V20.3334C13.3237 20.8857 12.876 21.3334 12.3237 21.3334H7.66303C7.11074 21.3334 6.66303 20.8857 6.66303 20.3334V15.6727C6.66303 15.1204 7.11074 14.6727 7.66303 14.6727H12.3237ZM11.3237 16.6727H8.66303V19.3334H11.3237V16.6727ZM16.3274 14.6727H20.3357C20.888 14.6727 21.3357 15.1204 21.3357 15.6727C21.3357 16.1789 20.9595 16.5973 20.4714 16.6635L20.3357 16.6727H16.3274C15.7751 16.6727 15.3274 16.225 15.3274 15.6727C15.3274 15.1664 15.7036 14.748 16.1917 14.6818L16.3274 14.6727H20.3357H16.3274ZM7.66303 10.0033H20.3357C20.888 10.0033 21.3357 10.4511 21.3357 11.0033C21.3357 11.5096 20.9595 11.928 20.4714 11.9942L20.3357 12.0033H7.66303C7.11074 12.0033 6.66303 11.5556 6.66303 11.0033C6.66303 10.4971 7.03923 10.0787 7.52734 10.0125L7.66303 10.0033H20.3357H7.66303Z" fill="#313048"/>
</svg>
