<svg width="32" height="32" viewBox="0 0 32 32" fill="none" xmlns="http://www.w3.org/2000/svg">
<path d="M23.6667 4C26.0599 4 28 5.9401 28 8.33333V23.6667C28 26.0599 26.0599 28 23.6667 28H8.33333C5.9401 28 4 26.0599 4 23.6667V8.33333C4 5.9401 5.9401 4 8.33333 4H23.6667ZM26 11.3333H6V23.6667C6 24.9553 7.04467 26 8.33333 26H23.6667C24.9553 26 26 24.9553 26 23.6667V11.3333ZM23.6667 6H8.33333C7.04467 6 6 7.04467 6 8.33333V9.33333H26V8.33333C26 7.04467 24.9553 6 23.6667 6Z" fill="#313048"/>
<path d="M11.4888 21.054C11.1288 21.054 10.7958 20.988 10.4898 20.856C10.1898 20.724 9.94976 20.511 9.76976 20.217C9.58976 19.923 9.49976 19.53 9.49976 19.038V16.428C9.49976 15.942 9.58976 15.552 9.76976 15.258C9.94976 14.964 10.1928 14.751 10.4988 14.619C10.8048 14.487 11.1378 14.421 11.4978 14.421C11.9118 14.421 12.2718 14.49 12.5778 14.628C12.8838 14.766 13.1208 14.958 13.2888 15.204C13.4568 15.45 13.5408 15.732 13.5408 16.05C13.5408 16.254 13.5018 16.389 13.4238 16.455C13.3458 16.515 13.2258 16.545 13.0638 16.545C12.9198 16.545 12.8058 16.521 12.7218 16.473C12.6378 16.419 12.5928 16.338 12.5868 16.23C12.5808 16.152 12.5658 16.059 12.5418 15.951C12.5178 15.843 12.4698 15.738 12.3978 15.636C12.3318 15.528 12.2268 15.441 12.0828 15.375C11.9448 15.303 11.7618 15.267 11.5338 15.267C11.1858 15.267 10.9188 15.363 10.7328 15.555C10.5468 15.741 10.4538 16.032 10.4538 16.428V19.038C10.4538 19.44 10.5468 19.737 10.7328 19.929C10.9188 20.115 11.1918 20.208 11.5518 20.208C11.7798 20.208 11.9598 20.175 12.0918 20.109C12.2238 20.037 12.3228 19.95 12.3888 19.848C12.4608 19.74 12.5088 19.629 12.5328 19.515C12.5568 19.395 12.5748 19.287 12.5868 19.191C12.5928 19.077 12.6378 18.996 12.7218 18.948C12.8118 18.9 12.9228 18.876 13.0548 18.876C13.2228 18.876 13.3458 18.909 13.4238 18.975C13.5018 19.041 13.5408 19.173 13.5408 19.371C13.5408 19.701 13.4538 19.992 13.2798 20.244C13.1118 20.496 12.8748 20.694 12.5688 20.838C12.2628 20.982 11.9028 21.054 11.4888 21.054ZM16.0879 21.072C15.6979 21.072 15.3529 21.015 15.0529 20.901C14.7529 20.787 14.5189 20.649 14.3509 20.487C14.1829 20.319 14.0989 20.16 14.0989 20.01C14.0989 19.902 14.1409 19.791 14.2249 19.677C14.3089 19.557 14.4049 19.497 14.5129 19.497C14.5969 19.497 14.6779 19.533 14.7559 19.605C14.8339 19.677 14.9239 19.761 15.0259 19.857C15.1339 19.947 15.2689 20.028 15.4309 20.1C15.5929 20.172 15.7999 20.208 16.0519 20.208C16.3759 20.208 16.6459 20.13 16.8619 19.974C17.0779 19.818 17.1859 19.578 17.1859 19.254C17.1859 19.026 17.1319 18.837 17.0239 18.687C16.9219 18.537 16.7839 18.411 16.6099 18.309C16.4359 18.207 16.2439 18.114 16.0339 18.03C15.8239 17.946 15.6139 17.856 15.4039 17.76C15.1999 17.664 15.0109 17.55 14.8369 17.418C14.6629 17.28 14.5219 17.109 14.4139 16.905C14.3119 16.695 14.2609 16.434 14.2609 16.122C14.2609 15.792 14.3209 15.516 14.4409 15.294C14.5669 15.066 14.7319 14.886 14.9359 14.754C15.1399 14.622 15.3649 14.529 15.6109 14.475C15.8569 14.415 16.0999 14.385 16.3399 14.385C16.4839 14.385 16.6489 14.397 16.8349 14.421C17.0209 14.445 17.2009 14.484 17.3749 14.538C17.5489 14.586 17.6929 14.652 17.8069 14.736C17.9209 14.82 17.9779 14.922 17.9779 15.042C17.9779 15.102 17.9629 15.174 17.9329 15.258C17.9029 15.336 17.8579 15.405 17.7979 15.465C17.7439 15.525 17.6719 15.555 17.5819 15.555C17.5039 15.555 17.4169 15.528 17.3209 15.474C17.2249 15.414 17.0989 15.357 16.9429 15.303C16.7929 15.243 16.5919 15.213 16.3399 15.213C16.0099 15.213 15.7399 15.279 15.5299 15.411C15.3199 15.543 15.2149 15.75 15.2149 16.032C15.2149 16.224 15.2659 16.383 15.3679 16.509C15.4759 16.629 15.6169 16.734 15.7909 16.824C15.9649 16.908 16.1539 16.992 16.3579 17.076C16.5679 17.154 16.7779 17.244 16.9879 17.346C17.1979 17.442 17.3899 17.568 17.5639 17.724C17.7379 17.874 17.8759 18.066 17.9779 18.3C18.0859 18.528 18.1399 18.813 18.1399 19.155C18.1399 19.587 18.0499 19.944 17.8699 20.226C17.6959 20.508 17.4529 20.721 17.1409 20.865C16.8349 21.003 16.4839 21.072 16.0879 21.072ZM20.6846 21.072C20.2946 21.072 19.9496 21.015 19.6496 20.901C19.3496 20.787 19.1156 20.649 18.9476 20.487C18.7796 20.319 18.6956 20.16 18.6956 20.01C18.6956 19.902 18.7376 19.791 18.8216 19.677C18.9056 19.557 19.0016 19.497 19.1096 19.497C19.1936 19.497 19.2746 19.533 19.3526 19.605C19.4306 19.677 19.5206 19.761 19.6226 19.857C19.7306 19.947 19.8656 20.028 20.0276 20.1C20.1896 20.172 20.3966 20.208 20.6486 20.208C20.9726 20.208 21.2426 20.13 21.4586 19.974C21.6746 19.818 21.7826 19.578 21.7826 19.254C21.7826 19.026 21.7286 18.837 21.6206 18.687C21.5186 18.537 21.3806 18.411 21.2066 18.309C21.0326 18.207 20.8406 18.114 20.6306 18.03C20.4206 17.946 20.2106 17.856 20.0006 17.76C19.7966 17.664 19.6076 17.55 19.4336 17.418C19.2596 17.28 19.1186 17.109 19.0106 16.905C18.9086 16.695 18.8576 16.434 18.8576 16.122C18.8576 15.792 18.9176 15.516 19.0376 15.294C19.1636 15.066 19.3286 14.886 19.5326 14.754C19.7366 14.622 19.9616 14.529 20.2076 14.475C20.4536 14.415 20.6966 14.385 20.9366 14.385C21.0806 14.385 21.2456 14.397 21.4316 14.421C21.6176 14.445 21.7976 14.484 21.9716 14.538C22.1456 14.586 22.2896 14.652 22.4036 14.736C22.5176 14.82 22.5746 14.922 22.5746 15.042C22.5746 15.102 22.5596 15.174 22.5296 15.258C22.4996 15.336 22.4546 15.405 22.3946 15.465C22.3406 15.525 22.2686 15.555 22.1786 15.555C22.1006 15.555 22.0136 15.528 21.9176 15.474C21.8216 15.414 21.6956 15.357 21.5396 15.303C21.3896 15.243 21.1886 15.213 20.9366 15.213C20.6066 15.213 20.3366 15.279 20.1266 15.411C19.9166 15.543 19.8116 15.75 19.8116 16.032C19.8116 16.224 19.8626 16.383 19.9646 16.509C20.0726 16.629 20.2136 16.734 20.3876 16.824C20.5616 16.908 20.7506 16.992 20.9546 17.076C21.1646 17.154 21.3746 17.244 21.5846 17.346C21.7946 17.442 21.9866 17.568 22.1606 17.724C22.3346 17.874 22.4726 18.066 22.5746 18.3C22.6826 18.528 22.7366 18.813 22.7366 19.155C22.7366 19.587 22.6466 19.944 22.4666 20.226C22.2926 20.508 22.0496 20.721 21.7376 20.865C21.4316 21.003 21.0806 21.072 20.6846 21.072Z" fill="#313048"/>
</svg>
