<svg width="32" height="32" viewBox="0 0 32 32" fill="none" xmlns="http://www.w3.org/2000/svg">
<path d="M21.318 5.33333L19.314 7.33333H6.99935L6.80798 7.34107C5.60883 7.43841 4.66602 8.44244 4.66602 9.66667V12.6533L8.14646 10.4668C9.48546 9.62513 11.2337 9.97175 12.1568 11.225L12.2829 11.4102C12.8094 12.2479 12.8864 13.2862 12.5013 14.1864L12.3953 14.4084L10.785 17.4556C10.527 17.9439 10.7136 18.5489 11.2019 18.8069C11.4596 18.9431 11.7615 18.959 12.0291 18.8558L12.1596 18.7943L14.5049 17.4703C14.985 17.1972 15.5955 17.365 15.8686 17.8451C16.1189 18.2852 15.9987 18.8348 15.6072 19.1337L15.4938 19.2087L13.1406 20.5372C12.2516 21.0375 11.1694 21.0518 10.2675 20.5752C8.86629 19.8347 8.29304 18.1419 8.92331 16.7141L9.01675 16.5211L10.6271 13.4739C10.794 13.158 10.7797 12.777 10.5896 12.4745C10.3224 12.0495 9.78792 11.8944 9.34165 12.0906L9.21077 12.16L4.66602 15.016V22.3395C4.66602 23.6281 5.71069 24.6728 6.99935 24.6728H24.9994C26.288 24.6728 27.3327 23.6281 27.3327 22.3395V12.5907L29.3327 10.5947V22.3395C29.3327 24.7327 27.3926 26.6728 24.9994 26.6728H6.99935C4.60612 26.6728 2.66602 24.7327 2.66602 22.3395V9.66667C2.66602 7.35596 4.47462 5.46767 6.75345 5.34019L6.99935 5.33333H21.318ZM28.2334 4.72648L28.407 4.88733L28.5676 5.06098C29.5852 6.24983 29.5311 8.04071 28.4056 9.16547L22.6978 14.8637C22.3471 15.2137 21.9153 15.4715 21.4407 15.6139L18.3373 16.5455C17.632 16.7572 16.8886 16.357 16.6769 15.6517C16.5993 15.393 16.602 15.1169 16.6848 14.8598L17.67 11.7999C17.8162 11.346 18.0686 10.9334 18.4061 10.5964L24.1269 4.88489C25.2534 3.76031 27.0448 3.70775 28.2334 4.72648ZM25.54 6.30026L19.8191 12.0117C19.7066 12.1241 19.6225 12.2616 19.5738 12.4129L18.9774 14.2652L20.8657 13.6983C21.0239 13.6509 21.1679 13.5649 21.2848 13.4483L26.9915 7.75119L27.0911 7.63587C27.389 7.23465 27.3561 6.66514 26.9923 6.30109C26.5914 5.89996 25.9413 5.89959 25.54 6.30026Z" fill="#313048"/>
</svg>
