<svg width="32" height="32" viewBox="0 0 32 32" fill="none" xmlns="http://www.w3.org/2000/svg">
<path d="M5.11782 7.80994C9.03916 2.58913 17.1573 1.06995 22.9363 4.66311C28.6428 8.21113 30.7415 15.0326 28.4042 21.4329C26.1973 27.4764 20.3825 29.8709 16.1914 26.8308C14.6214 25.692 14.0128 24.2645 13.7186 21.9457L13.5781 20.6285L13.5176 20.0985C13.3541 18.8531 13.1028 18.2952 12.5785 18.0029C11.8644 17.6049 11.3889 17.5956 10.4512 17.959L9.98302 18.1531L9.74471 18.257C8.39301 18.8441 7.49382 19.0503 6.35649 18.812L6.08949 18.7491L5.87145 18.687C2.15283 17.5347 1.60204 12.4908 5.11782 7.80994ZM6.43011 16.7652L6.59398 16.8138L6.77258 16.8549C7.35802 16.9708 7.85835 16.8742 8.68861 16.5325L9.49151 16.1895C11.0944 15.5322 12.1385 15.468 13.5522 16.256C14.7757 16.9379 15.2525 17.9861 15.4957 19.8021L15.5666 20.4143L15.6389 21.1233L15.7018 21.6865C15.9312 23.5016 16.3483 24.4739 17.3657 25.2119C20.3995 27.4125 24.745 25.623 26.5256 20.7469C28.5473 15.2106 26.7578 9.39417 21.8803 6.36158C16.9814 3.31562 10.0157 4.61913 6.71698 9.01106C3.95059 12.6942 4.28989 16.0505 6.43011 16.7652ZM21.3961 14.106C21.1579 13.2169 21.6855 12.303 22.5746 12.0648C23.4637 11.8266 24.3776 12.3542 24.6158 13.2433C24.8541 14.1324 24.3264 15.0463 23.4373 15.2846C22.5482 15.5228 21.6343 14.9952 21.3961 14.106ZM22.0555 18.7576C21.8173 17.8685 22.3449 16.9546 23.2341 16.7164C24.1232 16.4781 25.0371 17.0058 25.2753 17.8949C25.5135 18.784 24.9859 19.6979 24.0968 19.9361C23.2077 20.1743 22.2938 19.6467 22.0555 18.7576ZM18.7581 10.1025C18.5198 9.21335 19.0475 8.29946 19.9366 8.06122C20.8257 7.82298 21.7396 8.35062 21.9778 9.23973C22.2161 10.1288 21.6884 11.0427 20.7993 11.281C19.9102 11.5192 18.9963 10.9916 18.7581 10.1025ZM18.7201 22.1003C18.4819 21.2112 19.0095 20.2973 19.8986 20.0591C20.7877 19.8208 21.7016 20.3485 21.9399 21.2376C22.1781 22.1267 21.6505 23.0406 20.7613 23.2788C19.8722 23.5171 18.9583 22.9894 18.7201 22.1003ZM14.0575 8.807C13.8193 7.91789 14.3469 7.004 15.2361 6.76576C16.1252 6.52753 17.0391 7.05516 17.2773 7.94427C17.5155 8.83338 16.9879 9.74728 16.0988 9.98552C15.2097 10.2238 14.2958 9.69611 14.0575 8.807Z" fill="#313048"/>
</svg>
