<svg width="32" height="32" viewBox="0 0 32 32" fill="none" xmlns="http://www.w3.org/2000/svg">
<path d="M18.7141 3.70336C20.6701 3.17924 22.6807 4.34005 23.2048 6.29609L26.8283 19.819C27.3524 21.7751 26.1916 23.7857 24.2355 24.3098L15.8642 26.5529C13.9081 27.077 11.8976 25.9162 11.3734 23.9602L7.74998 10.4372C7.22586 8.48115 8.38666 6.47058 10.3427 5.94646L18.7141 3.70336ZM7.73663 15.544L10.0855 24.3052C10.3268 25.2058 10.7992 25.9827 11.4217 26.5893L10.8312 26.5575C8.80892 26.4516 7.25546 24.7263 7.36145 22.704L7.73663 15.544ZM19.2317 5.63522L10.8603 7.87831C9.97123 8.11655 9.44359 9.03044 9.68183 9.91955L13.3053 23.4425C13.5435 24.3316 14.4574 24.8593 15.3465 24.621L23.7179 22.3779C24.607 22.1397 25.1346 21.2258 24.8964 20.3367L21.2729 6.81373C21.0347 5.92462 20.1208 5.39698 19.2317 5.63522ZM6.50384 13.5731L6.02994 22.6342C5.98112 23.5658 6.19054 24.4512 6.59563 25.2208L6.04309 25.0067C4.15255 24.281 3.20827 22.1601 3.93398 20.2696L6.50384 13.5731ZM12.9879 9.3788C13.6991 9.18821 14.4303 9.61032 14.6209 10.3216C14.8114 11.0329 14.3893 11.764 13.678 11.9546C12.9668 12.1452 12.2356 11.7231 12.045 11.0118C11.8545 10.3005 12.2766 9.56939 12.9879 9.3788Z" fill="#313048"/>
</svg>
