<svg width="32" height="32" viewBox="0 0 32 32" fill="none" xmlns="http://www.w3.org/2000/svg">
<path d="M21.4 14.8C25.0451 14.8 28 17.7549 28 21.4C28 25.0451 25.0451 28 21.4 28C17.7549 28 14.8 25.0451 14.8 21.4C14.8 17.7549 17.7549 14.8 21.4 14.8ZM21.7 4C23.8539 4 25.6 5.74609 25.6 7.9L25.6015 14.8271C25.0453 14.4709 24.441 14.1833 23.8005 13.9764L23.8 10.6H5.8V21.7C5.8 22.8598 6.7402 23.8 7.9 23.8L13.9764 23.8005C14.1833 24.441 14.4709 25.0453 14.8271 25.6015L7.9 25.6C5.74609 25.6 4 23.8539 4 21.7V7.9C4 5.74609 5.74609 4 7.9 4H21.7ZM24.5757 18.5757L19.6649 23.4865L18.28 21.64C18.0812 21.3749 17.7051 21.3212 17.44 21.52C17.1749 21.7188 17.1212 22.0949 17.32 22.36L19.12 24.76C19.3391 25.0521 19.7661 25.0824 20.0243 24.8242L25.4243 19.4242C25.6586 19.1899 25.6586 18.81 25.4243 18.5757C25.19 18.3414 24.8101 18.3414 24.5757 18.5757ZM21.7 5.8H7.9C6.7402 5.8 5.8 6.7402 5.8 7.9V8.8H23.8V7.9C23.8 6.7402 22.8598 5.8 21.7 5.8Z" fill="#313048"/>
<path d="M19.4982 17.5513C19.2943 16.7339 19.2801 15.8681 19.4755 15.0257L16.7295 12.2759C16.4953 12.0414 16.1154 12.0411 15.881 12.2753C15.6465 12.5095 15.6462 12.8894 15.8804 13.1238L19.0521 16.2998L15.8804 19.4759C15.6462 19.7104 15.6465 20.0903 15.881 20.3244C16.1154 20.5586 16.4953 20.5583 16.7295 20.3238L19.4982 17.5513Z" fill="#313048"/>
<path d="M13.1285 12.2758C13.3627 12.5103 13.3625 12.8902 13.1281 13.1244L9.949 16.2999L13.1281 19.4754C13.3625 19.7095 13.3627 20.0894 13.1285 20.3239C12.8944 20.5583 12.5145 20.5585 12.28 20.3244L8.67597 16.7244C8.56331 16.6118 8.5 16.4591 8.5 16.2999C8.5 16.1406 8.56331 15.9879 8.67597 15.8754L12.28 12.2754C12.5145 12.0412 12.8943 12.0414 13.1285 12.2758Z" fill="#313048"/>
</svg>
