<svg width="32" height="32" viewBox="0 0 32 32" fill="none" xmlns="http://www.w3.org/2000/svg">
<path d="M6.99935 2.66666C4.60612 2.66666 2.66602 4.60676 2.66602 6.99999V22.3333C2.66602 24.7266 4.60611 26.6667 6.99935 26.6667H16.684C16.7529 26.3303 16.8763 25.9991 17.0574 25.6854L17.6456 24.6667H6.99935C5.71068 24.6667 4.66602 23.622 4.66602 22.3333V9.33332H24.666V10.8075C25.3164 10.6543 25.9928 10.609 26.666 10.6791V6.99999C26.666 4.60676 24.7259 2.66666 22.3327 2.66666H6.99935Z" fill="#313048"/>
<path d="M25.6157 12C25.9 11.9737 26.1875 11.9734 26.4746 12C26.6149 12.013 26.755 12.0324 26.8946 12.0584L24.694 15.8699C24.2644 16.6139 24.5193 17.5653 25.2634 17.9948C26.0074 18.4244 26.9587 18.1694 27.3883 17.4254L29.5889 13.6139C30.8382 15.075 31.0985 17.2213 30.0826 18.9809C29.1441 20.6064 27.3755 21.4537 25.6214 21.2965L21.58 28.2966C21.043 29.2266 19.8538 29.5452 18.9238 29.0083C18.0959 28.5303 17.7525 27.5354 18.0658 26.6667C18.1045 26.5595 18.1531 26.4542 18.2121 26.3521L22.246 19.3652C21.2139 17.9221 21.0547 15.9509 21.9996 14.3143C22.787 12.9506 24.1586 12.1346 25.6157 12Z" fill="#313048"/>
<path d="M20.2196 18.0993C19.993 17.1911 19.9772 16.2291 20.1944 15.2931L17.1432 12.2377C16.883 11.9772 16.4609 11.9769 16.2004 12.2371C15.9399 12.4973 15.9396 12.9194 16.1998 13.1799L19.7239 16.7088L16.1998 20.2377C15.9396 20.4983 15.9399 20.9204 16.2004 21.1805C16.4609 21.4407 16.883 21.4404 17.1432 21.1799L20.2196 18.0993Z" fill="#313048"/>
<path d="M13.1422 12.2377C13.4024 12.4982 13.4021 12.9203 13.1416 13.1805L9.60935 16.7088L13.1416 20.2371C13.4021 20.4973 13.4024 20.9195 13.1422 21.18C12.882 21.4404 12.4599 21.4407 12.1994 21.1805L8.19487 17.1805C8.06969 17.0554 7.99935 16.8858 7.99935 16.7088C7.99935 16.5319 8.06969 16.3622 8.19487 16.2372L12.1994 12.2371C12.4598 11.9769 12.882 11.9772 13.1422 12.2377Z" fill="#313048"/>
</svg>
