<svg width="32" height="32" viewBox="0 0 32 32" fill="none" xmlns="http://www.w3.org/2000/svg">
<path d="M23.6683 4L23.9142 4.00685C26.1116 4.12978 27.8718 5.88999 27.9947 8.08743L28.0016 8.33333V23.6667L27.9947 23.9125C27.8673 26.1913 25.979 28 23.6683 28H8.33333C6.02263 28 4.13433 26.1913 4.00685 23.9125L4 23.6667V8.33333C4 6.02263 5.8086 4.13433 8.08744 4.00685L8.33333 4H23.6683ZM26 10.6667H6.0016L6 23.6667C6 24.8909 6.94281 25.8949 8.14196 25.9923L8.33333 26H23.6683L23.8596 25.9923C24.9922 25.9003 25.8961 24.9997 25.993 23.8686L26.0016 23.6667L26 10.6667ZM13.6667 12.6667C14.1729 12.6667 14.5913 13.0429 14.6575 13.531L14.6667 13.6667V23C14.6667 23.5063 14.2905 23.9247 13.8024 23.9909L13.6667 24H9C8.49374 24 8.07534 23.6238 8.00913 23.1357L8 23V13.6667C8 13.1604 8.37621 12.742 8.86431 12.6758L9 12.6667H13.6667ZM12.6667 14.6667H10V22H12.6667V14.6667Z" fill="#313048"/>
<path d="M21.6665 18L23.6665 16L21.6665 14" stroke="#313048" stroke-width="1.75" stroke-linecap="round" stroke-linejoin="round"/>
<path d="M19 14L17 16L19 18" stroke="#313048" stroke-width="1.75" stroke-linecap="round" stroke-linejoin="round"/>
</svg>
