<svg width="32" height="32" viewBox="0 0 32 32" fill="none" xmlns="http://www.w3.org/2000/svg">
<path d="M23.0008 2.66732C25.0258 2.66732 26.6675 4.30894 26.6675 6.33398V25.665C26.6675 27.69 25.0258 29.3316 23.0008 29.3316H9.00065C6.97561 29.3316 5.33398 27.69 5.33398 25.665V6.33398C5.33398 4.6554 6.46194 3.24026 8.00125 2.80517L8.00015 5.0009C7.59562 5.30499 7.33399 5.78893 7.33399 6.33398V25.665C7.33399 26.5855 8.08018 27.3316 9.00065 27.3316H23.0008C23.9213 27.3316 24.6675 26.5855 24.6675 25.665V6.33398C24.6675 5.41351 23.9213 4.66732 23.0008 4.66732L20.0007 4.66663V2.66663L23.0008 2.66732ZM18.6675 2.66663V13.5185C18.6675 14.5147 17.6016 14.8887 16.9485 14.5377L16.8378 14.4682L14.0032 12.7543L11.2324 14.4229C10.5661 14.9038 9.45854 14.6085 9.3438 13.6792L9.33412 13.5185V2.66663H18.6675ZM16.6675 4.66663H11.3341V12.031L13.4318 10.7656C13.7842 10.5813 14.2106 10.5778 14.5215 10.7338L16.6675 12.0319V4.66663Z" fill="#313048"/>
</svg>
