<svg width="32" height="32" viewBox="0 0 32 32" fill="none" xmlns="http://www.w3.org/2000/svg">
<path d="M23.334 16C27.3841 16 30.6673 19.2832 30.6673 23.3333C30.6673 27.3834 27.3841 30.6666 23.334 30.6666C19.2839 30.6666 16.0006 27.3834 16.0006 23.3333C16.0006 19.2832 19.2839 16 23.334 16ZM23.334 18.6656L23.2141 18.6763C22.942 18.7257 22.7274 18.9403 22.6781 19.2124L22.6673 19.3323L22.6668 22.6656L19.3308 22.6666L19.211 22.6774C18.9389 22.7267 18.7243 22.9413 18.6749 23.2134L18.6642 23.3333L18.6749 23.4531C18.7243 23.7252 18.9389 23.9398 19.211 23.9892L19.3308 23.9999L22.6682 23.9989L22.6688 27.3379L22.6795 27.4578C22.7289 27.7299 22.9435 27.9445 23.2156 27.9939L23.3355 28.0046L23.4553 27.9939C23.7274 27.9445 23.942 27.7299 23.9914 27.4578L24.0021 27.3379L24.0015 23.9989L27.3401 23.9999L27.4599 23.9892C27.732 23.9398 27.9466 23.7252 27.996 23.4531L28.0067 23.3333L27.996 23.2134C27.9466 22.9413 27.732 22.7267 27.4599 22.6774L27.3401 22.6666L24.0002 22.6656L24.0006 19.3323L23.9899 19.2124C23.9405 18.9403 23.7259 18.7257 23.4538 18.6763L23.334 18.6656ZM23.6673 2.66663C25.978 2.66663 27.8663 4.47523 27.9938 6.75406L28.0006 6.99996L28.0023 16.0301C27.3844 15.6343 26.7129 15.3148 26.0012 15.0848L26.0006 9.83062L15.1331 15.5515C14.8832 15.6831 14.5915 15.7018 14.3297 15.6079L14.2016 15.5515L3.33398 9.83196V19.6666C3.33398 20.8908 4.2768 21.8949 5.47595 21.9922L5.66732 22L14.7692 22.0001C14.7021 22.4347 14.6673 22.8799 14.6673 23.3333C14.6673 23.5577 14.6758 23.7802 14.6926 24.0004L5.66732 23.9999C3.35661 23.9999 1.46832 22.1913 1.34084 19.9125L1.33398 19.6666V6.99996C1.33398 4.68925 3.14259 2.80096 5.42142 2.67349L5.66732 2.66663H23.6673ZM23.6673 4.66663H5.66732C4.44309 4.66663 3.43906 5.60944 3.34172 6.80859L3.33398 6.99996V7.57196L14.6673 13.5366L26.0006 7.57062V6.99996C26.0006 5.77573 25.0578 4.7717 23.8587 4.67436L23.6673 4.66663Z" fill="#313048"/>
</svg>
