<svg width="32" height="32" viewBox="0 0 32 32" fill="none" xmlns="http://www.w3.org/2000/svg">
<path d="M28.0001 10.015C29.2024 10.7852 29.9993 12.1329 29.9993 13.6667V21.6667C29.9993 25.5327 26.8653 28.6667 22.9993 28.6667H10.9993C9.46552 28.6667 8.11781 27.8698 7.34769 26.6674L22.9993 26.6667C25.7608 26.6667 27.9993 24.4281 27.9993 21.6667L28.0001 10.015ZM6.99935 5.33337H22.3327C24.6434 5.33337 26.5317 7.14198 26.6592 9.42081L26.666 9.66671V21C26.666 23.3107 24.8574 25.199 22.5786 25.3265L22.3327 25.3334H6.99935C4.68864 25.3334 2.80035 23.5248 2.67288 21.2459L2.66602 21V9.66671C2.66602 7.356 4.47462 5.46771 6.75345 5.34023L6.99935 5.33337ZM24.666 11.8654L15.1318 16.885C14.8819 17.0165 14.5902 17.0353 14.3284 16.9413L14.2003 16.885L4.66602 11.8667V21C4.66602 22.2243 5.60883 23.2283 6.80798 23.3256L6.99935 23.3334H22.3327C23.5569 23.3334 24.5609 22.3906 24.6583 21.1914L24.666 21V11.8654ZM22.3327 7.33337H6.99935C5.77512 7.33337 4.77109 8.27619 4.67375 9.47534L4.66868 9.60804L14.666 14.87L24.6652 9.60648C24.6333 8.34565 23.6012 7.33337 22.3327 7.33337Z" fill="#313048"/>
</svg>
