<svg width="32" height="32" viewBox="0 0 32 32" fill="none" xmlns="http://www.w3.org/2000/svg">
<path d="M15.9994 2.66663C23.3631 2.66663 29.3327 8.63616 29.3327 16C29.3327 23.3638 23.3631 29.3333 15.9994 29.3333C8.63555 29.3333 2.66602 23.3638 2.66602 16C2.66602 8.63616 8.63555 2.66663 15.9994 2.66663ZM15.9994 4.66663C9.74012 4.66663 4.66602 9.74073 4.66602 16C4.66602 22.2592 9.74012 27.3333 15.9994 27.3333C22.2586 27.3333 27.3327 22.2592 27.3327 16C27.3327 9.74073 22.2586 4.66663 15.9994 4.66663ZM12.0697 11.4472C12.2161 11.1544 12.5488 11.0165 12.8522 11.105L12.9642 11.149L21.4734 15.4037C21.6025 15.4682 21.7071 15.5728 21.7716 15.7018C21.918 15.9945 21.8288 16.3435 21.5758 16.533L21.4734 16.5962L12.9642 20.8509C12.8716 20.8972 12.7695 20.9213 12.666 20.9213C12.3387 20.9213 12.0665 20.6854 12.0101 20.3744L11.9993 20.2546V11.7453C11.9993 11.6418 12.0234 11.5397 12.0697 11.4472Z" fill="#313048"/>
</svg>
