<svg width="32" height="32" viewBox="0 0 32 32" fill="none" xmlns="http://www.w3.org/2000/svg">
<path d="M23.6667 4C26.0599 4 28 5.9401 28 8.33333V17.5049C28 18.3006 27.6839 19.0636 27.1213 19.6262L19.6262 27.1213C19.0636 27.6839 18.3006 28 17.5049 28H8.33333C5.9401 28 4 26.0599 4 23.6667V8.33333C4 5.9401 5.9401 4 8.33333 4H23.6667ZM23.6667 6H8.33333C7.04467 6 6 7.04467 6 8.33333V23.6667C6 24.9553 7.04467 26 8.33333 26H17.3333L17.3346 21.9153C17.0397 21.9594 16.7401 21.9885 16.4358 22.0027L16.0012 22.0128C14.2032 22.0128 12.5598 21.5037 11.0978 20.4924C10.6435 20.1783 10.53 19.5554 10.8442 19.1011C11.1583 18.6469 11.7813 18.5334 12.2355 18.8475C13.3619 19.6267 14.6082 20.0128 16.0012 20.0128C16.6176 20.0128 17.2053 19.9372 17.7666 19.7854C18.4279 18.4137 19.7883 17.4463 21.3842 17.3426L21.6682 17.3333H26V8.33333C26 7.04467 24.9553 6 23.6667 6ZM24.5853 19.3333H21.6685C20.4442 19.3337 19.44 20.2766 19.3421 21.4755L19.3343 21.6668L19.3333 24.5853L24.5853 19.3333ZM12.0006 10.3349C12.9205 10.3349 13.6663 11.0806 13.6663 12.0006C13.6663 12.9205 12.9205 13.6663 12.0006 13.6663C11.0806 13.6663 10.3349 12.9205 10.3349 12.0006C10.3349 11.0806 11.0806 10.3349 12.0006 10.3349ZM20.0006 10.3349C20.9205 10.3349 21.6663 11.0806 21.6663 12.0006C21.6663 12.9205 20.9205 13.6663 20.0006 13.6663C19.0806 13.6663 18.3349 12.9205 18.3349 12.0006C18.3349 11.0806 19.0806 10.3349 20.0006 10.3349Z" fill="#313048"/>
</svg>
