<svg width="32" height="32" viewBox="0 0 32 32" fill="none" xmlns="http://www.w3.org/2000/svg">
<path d="M24.3351 3.33095C26.6459 3.33095 28.5342 5.13938 28.6617 7.41824L28.6685 7.66414L28.6677 23.6692C28.6675 26.0623 26.7275 28.0025 24.3343 28.0025H8.33341C6.02268 28.0025 4.13434 26.194 4.00686 23.9152L4 23.6693L4.0008 7.66416C4.00108 5.27106 5.94109 3.33095 8.3342 3.33095H24.3351ZM15.3333 12.6643L6 12.6656L6.00014 23.6692L6.0097 23.8835C6.11785 25.0717 7.11687 26.0025 8.33333 26.0025L15.3333 26.0016V12.6643ZM26.6667 20.6643L17.3333 20.6656V26.0016L24.3342 26.0025C25.6229 26.0025 26.6676 24.9577 26.6677 23.6691L26.6667 20.6643ZM24.3352 5.33095L17.3333 5.32961V18.6656L26.6667 18.6643L26.6684 7.66424L26.6588 7.44994C26.5507 6.26168 25.5517 5.33095 24.3352 5.33095ZM15.3333 5.32961L8.33431 5.33095L8.14297 5.3387C6.9438 5.43612 6.00094 6.44014 6.0008 7.66432L6 10.6656L15.3333 10.6643V5.32961Z" fill="#313048"/>
</svg>
