<svg width="32" height="32" viewBox="0 0 32 32" fill="none" xmlns="http://www.w3.org/2000/svg">
<path d="M25.3243 8.01043C26.5317 8.77713 27.3333 10.1283 27.3333 11.6667V20.3333C27.3333 24.1993 24.1993 27.3333 20.3333 27.3333H11.6667C10.1283 27.3333 8.77713 26.5317 8.00816 25.3233L8.17104 25.3309L8.33333 25.3333H20.3333C23.0948 25.3333 25.3333 23.0948 25.3333 20.3333V8.33333C25.3333 8.22496 25.3303 8.1173 25.3243 8.01043ZM19.6667 4C22.0599 4 24 5.9401 24 8.33333V19.6667C24 22.0599 22.0599 24 19.6667 24H8.33333C5.9401 24 4 22.0599 4 19.6667V8.33333C4 5.9401 5.9401 4 8.33333 4H19.6667ZM13.4255 16.183L13.3026 16.2849L7.56063 21.869C7.80247 21.9539 8.06251 22 8.33333 22H19.6667C19.9375 22 20.1975 21.9539 20.4394 21.869L14.6968 16.2849C14.3475 15.9453 13.812 15.9113 13.4255 16.183ZM19.6667 6H8.33333C7.04467 6 6 7.04467 6 8.33333V19.6667C6 19.945 6.04875 20.212 6.13817 20.4596L11.9084 14.851C13.0146 13.7755 14.743 13.7217 15.9113 14.6896L16.091 14.851L21.8613 20.4609C21.9511 20.213 22 19.9455 22 19.6667V8.33333C22 7.04467 20.9553 6 19.6667 6ZM17.3339 9.00154C18.2539 9.00154 18.9996 9.74731 18.9996 10.6673C18.9996 11.5872 18.2539 12.333 17.3339 12.333C16.414 12.333 15.6682 11.5872 15.6682 10.6673C15.6682 9.74731 16.414 9.00154 17.3339 9.00154Z" fill="#313048"/>
</svg>
