<svg width="32" height="32" viewBox="0 0 32 32" fill="none" xmlns="http://www.w3.org/2000/svg">
<path d="M23.6667 4C26.0599 4 28 5.9401 28 8.33333V23.6667C28 26.0599 26.0599 28 23.6667 28H8.33333C5.9401 28 4 26.0599 4 23.6667V8.33333C4 5.9401 5.9401 4 8.33333 4H23.6667ZM26 11.3333H6V23.6667C6 24.9553 7.04467 26 8.33333 26H23.6667C24.9553 26 26 24.9553 26 23.6667V11.3333ZM23.6667 6H8.33333C7.04467 6 6 7.04467 6 8.33333V9.33333H26V8.33333C26 7.04467 24.9553 6 23.6667 6Z" fill="#313048"/>
<path d="M13.4483 21.054C13.0223 21.054 12.6383 20.982 12.2963 20.838C11.9543 20.688 11.6843 20.472 11.4863 20.19C11.2883 19.908 11.1893 19.569 11.1893 19.173C11.1893 18.903 11.2463 18.726 11.3603 18.642C11.4803 18.552 11.6603 18.507 11.9003 18.507C12.0803 18.507 12.2363 18.537 12.3683 18.597C12.5063 18.651 12.5813 18.762 12.5933 18.93C12.6053 19.044 12.6263 19.173 12.6563 19.317C12.6863 19.455 12.7553 19.575 12.8633 19.677C12.9713 19.779 13.1453 19.83 13.3853 19.83C13.6493 19.83 13.8503 19.758 13.9883 19.614C14.1323 19.464 14.2043 19.236 14.2043 18.93V15.645H13.4213C13.2893 15.645 13.1843 15.585 13.1063 15.465C13.0343 15.339 12.9983 15.192 12.9983 15.024C12.9983 14.88 13.0313 14.745 13.0973 14.619C13.1633 14.487 13.2713 14.421 13.4213 14.421H14.9963C15.1523 14.421 15.2933 14.457 15.4193 14.529C15.5453 14.601 15.6083 14.709 15.6083 14.853V18.93C15.6083 19.446 15.5093 19.86 15.3113 20.172C15.1193 20.484 14.8583 20.709 14.5283 20.847C14.2043 20.985 13.8443 21.054 13.4483 21.054ZM18.4059 21.09C18.0159 21.09 17.6559 21.033 17.3259 20.919C16.9959 20.805 16.7319 20.661 16.5339 20.487C16.3359 20.307 16.2369 20.118 16.2369 19.92C16.2369 19.818 16.2639 19.71 16.3179 19.596C16.3719 19.476 16.4439 19.374 16.5339 19.29C16.6299 19.206 16.7349 19.164 16.8489 19.164C16.9569 19.164 17.0559 19.197 17.1459 19.263C17.2419 19.329 17.3439 19.407 17.4519 19.497C17.5659 19.587 17.6949 19.665 17.8389 19.731C17.9889 19.797 18.1689 19.83 18.3789 19.83C18.5169 19.83 18.6519 19.812 18.7839 19.776C18.9219 19.734 19.0329 19.671 19.1169 19.587C19.2069 19.497 19.2519 19.38 19.2519 19.236C19.2519 19.056 19.1829 18.906 19.0449 18.786C18.9069 18.66 18.7299 18.546 18.5139 18.444C18.2979 18.336 18.0669 18.225 17.8209 18.111C17.5809 17.997 17.3529 17.862 17.1369 17.706C16.9209 17.544 16.7439 17.346 16.6059 17.112C16.4679 16.872 16.3989 16.578 16.3989 16.23C16.3989 15.894 16.4649 15.609 16.5969 15.375C16.7289 15.135 16.9059 14.943 17.1279 14.799C17.3499 14.649 17.5959 14.541 17.8659 14.475C18.1419 14.403 18.4209 14.367 18.7029 14.367C18.8229 14.367 18.9819 14.376 19.1799 14.394C19.3779 14.412 19.5759 14.448 19.7739 14.502C19.9779 14.556 20.1489 14.637 20.2869 14.745C20.4249 14.847 20.4939 14.985 20.4939 15.159C20.4939 15.237 20.4729 15.336 20.4309 15.456C20.3949 15.57 20.3349 15.672 20.2509 15.762C20.1729 15.852 20.0679 15.897 19.9359 15.897C19.8279 15.897 19.7259 15.87 19.6299 15.816C19.5399 15.756 19.4229 15.699 19.2789 15.645C19.1409 15.585 18.9489 15.555 18.7029 15.555C18.3849 15.555 18.1539 15.612 18.0099 15.726C17.8719 15.834 17.8029 15.957 17.8029 16.095C17.8029 16.245 17.8719 16.371 18.0099 16.473C18.1479 16.575 18.3249 16.674 18.5409 16.77C18.7569 16.86 18.9849 16.965 19.2249 17.085C19.4709 17.199 19.7019 17.34 19.9179 17.508C20.1339 17.676 20.3109 17.889 20.4489 18.147C20.5869 18.399 20.6559 18.714 20.6559 19.092C20.6559 19.524 20.5569 19.89 20.3589 20.19C20.1669 20.484 19.9029 20.709 19.5669 20.865C19.2309 21.015 18.8439 21.09 18.4059 21.09Z" fill="#313048"/>
</svg>
