<svg width="32" height="32" viewBox="0 0 32 32" fill="none" xmlns="http://www.w3.org/2000/svg">
<path d="M10.3332 6.90677C10.6682 7.34592 10.5837 7.97342 10.1445 8.30834C7.76009 10.1268 6.33398 12.9442 6.33398 16C6.33398 20.9813 10.1018 25.0826 14.9429 25.6094L14.0411 24.7071C13.6506 24.3165 13.6506 23.6834 14.0411 23.2929C14.3961 22.9378 14.9517 22.9056 15.3431 23.196L15.4553 23.2929L18.122 25.9595C18.477 26.3145 18.5093 26.8701 18.2188 27.2616L18.122 27.3737L15.4553 30.0404C15.0648 30.4309 14.4316 30.4309 14.0411 30.0404C13.6861 29.6854 13.6538 29.1298 13.9443 28.7383L14.0411 28.6262L15.0414 27.6278C9.0468 27.1399 4.33398 22.1203 4.33398 16C4.33398 12.3136 6.05636 8.91091 8.93168 6.71805C9.37082 6.38313 9.99833 6.46762 10.3332 6.90677ZM17.9602 1.95952C18.3507 2.35004 18.3507 2.98321 17.9602 3.37373L16.9612 4.37227C22.9552 4.86076 27.6673 9.88007 27.6673 16C27.6673 19.5259 26.0923 22.7965 23.4262 24.9988C23.0004 25.3505 22.3701 25.2904 22.0184 24.8646C21.6667 24.4388 21.7267 23.8085 22.1525 23.4568C24.3634 21.6305 25.6673 18.9229 25.6673 16C25.6673 11.0191 21.9002 6.91811 17.0597 6.39065L17.9602 7.29285C18.3507 7.68338 18.3507 8.31654 17.9602 8.70707C17.5697 9.09759 16.9365 9.09759 16.546 8.70707L13.8793 6.0404C13.4888 5.64988 13.4888 5.01671 13.8793 4.62619L16.546 1.95952C16.9365 1.56899 17.5697 1.56899 17.9602 1.95952Z" fill="#313048"/>
</svg>
