<svg width="32" height="32" viewBox="0 0 32 32" fill="none" xmlns="http://www.w3.org/2000/svg">
<path d="M15.6685 2.66614C17.6949 2.66614 19.3377 4.30888 19.3377 6.3353V25.6667C19.3377 27.6931 17.6949 29.3358 15.6685 29.3358C13.6421 29.3358 11.9993 27.6931 11.9993 25.6667V6.3353C11.9993 4.30888 13.6421 2.66614 15.6685 2.66614ZM25.0018 9.33281C27.0283 9.33281 28.671 10.9755 28.671 13.002V25.6667C28.671 27.6931 27.0283 29.3358 25.0018 29.3358C22.9754 29.3358 21.3327 27.6931 21.3327 25.6667V13.002C21.3327 10.9755 22.9754 9.33281 25.0018 9.33281ZM6.33518 15.9995C8.3616 15.9995 10.0043 17.6422 10.0043 19.6686V25.6667C10.0043 27.6931 8.3616 29.3358 6.33518 29.3358C4.30875 29.3358 2.66602 27.6931 2.66602 25.6667V19.6686C2.66602 17.6422 4.30875 15.9995 6.33518 15.9995ZM15.6685 4.66614C14.7467 4.66614 13.9993 5.41345 13.9993 6.3353V25.6667C13.9993 26.5885 14.7467 27.3358 15.6685 27.3358C16.5904 27.3358 17.3377 26.5885 17.3377 25.6667V6.3353C17.3377 5.41345 16.5904 4.66614 15.6685 4.66614ZM25.0018 11.3328C24.08 11.3328 23.3327 12.0801 23.3327 13.002V25.6667C23.3327 26.5885 24.08 27.3358 25.0018 27.3358C25.9237 27.3358 26.671 26.5885 26.671 25.6667V13.002C26.671 12.0801 25.9237 11.3328 25.0018 11.3328ZM6.33518 17.9995C5.41332 17.9995 4.66602 18.7468 4.66602 19.6686V25.6667C4.66602 26.5885 5.41332 27.3358 6.33518 27.3358C7.25703 27.3358 8.00434 26.5885 8.00434 25.6667V19.6686C8.00434 18.7468 7.25703 17.9995 6.33518 17.9995Z" fill="#313048"/>
</svg>
