<svg width="32" height="32" viewBox="0 0 32 32" fill="none" xmlns="http://www.w3.org/2000/svg">
<path d="M15 10.665H25L25.3195 10.6766C27.4825 10.8342 29.2049 12.5796 29.3265 14.7524L29.3333 14.9983V24.9983C29.3333 27.309 27.5247 29.1973 25.2459 29.3248L25 29.3317H15C12.6893 29.3317 10.801 27.5231 10.6735 25.2442L10.6667 24.9983V14.9983C10.6667 12.6876 12.4753 10.7993 14.7541 10.6719L15 10.665ZM12.6667 24.9983L12.6727 25.168L12.6972 25.3768C12.868 26.4239 13.7357 27.2368 14.8086 27.3239L15 27.3317H25C26.2242 27.3317 27.2283 26.3889 27.3256 25.1897L27.3333 24.9983V14.9983C27.3333 13.7097 26.2887 12.665 25 12.665H15C13.7758 12.665 12.7717 13.6078 12.6744 14.807L12.6667 14.9983V24.9983ZM21 6.66667C21.1075 6.66667 21.214 6.67058 21.3195 6.67827C22.9826 6.79937 24.3854 7.85939 25.0001 9.33073L22.6297 9.33014C22.2519 8.96134 21.7494 8.7197 21.1914 8.67441L21 8.66667H11C9.77577 8.66667 8.77175 9.60949 8.67441 10.8086L8.66667 11V21L8.68112 21.2611C8.74033 21.7929 8.97829 22.2708 9.33354 22.6332L9.33341 25.0013C7.8391 24.3781 6.76843 22.9423 6.67353 21.2459L6.66667 21V11C6.66667 8.6893 8.47528 6.80101 10.7541 6.67353L11 6.66667H21ZM17 2.66667C18.733 2.66667 20.2285 3.68401 20.9216 5.15406L21 5.33334L18.6311 5.33145C18.2531 4.96191 17.7501 4.71976 17.1914 4.67441L17 4.66667H7.00001C5.77577 4.66667 4.77175 5.60949 4.67441 6.80864L4.66667 7.00001V17C4.66667 17.6359 4.92103 18.2123 5.33354 18.6332L5.33341 21.0013C3.8391 20.3781 2.76843 18.9423 2.67353 17.2459L2.66667 17V7.00001C2.66667 4.6893 4.47528 2.80101 6.75411 2.67353L7.00001 2.66667H17Z" fill="#313048"/>
</svg>
