<svg width="32" height="32" viewBox="0 0 32 32" fill="none" xmlns="http://www.w3.org/2000/svg">
<path d="M24.9984 3.99939C26.6553 3.99939 27.9984 5.34254 27.9984 6.99939V25.0024C27.9984 26.6593 26.6553 28.0024 24.9984 28.0024H7C5.34315 28.0024 4 26.6593 4 25.0024V6.99939C4 5.34254 5.34315 3.99939 7 3.99939H24.9984ZM24.9984 5.99939H7C6.44772 5.99939 6 6.44711 6 6.99939V25.0024C6 25.5547 6.44772 26.0024 7 26.0024H24.9984C25.5507 26.0024 25.9984 25.5547 25.9984 25.0024V6.99939C25.9984 6.44711 25.5507 5.99939 24.9984 5.99939ZM11.0068 15.3333L13.0823 10.5985C13.4174 9.83412 14.4634 9.8057 14.8601 10.4913L14.9265 10.6282L18.1016 18.5572L19.4393 15.8856C19.5876 15.5894 19.8711 15.3887 20.1933 15.3432L20.3334 15.3333H23C23.5523 15.3333 24 15.781 24 16.3333C24 16.8396 23.6238 17.258 23.1357 17.3242L23 17.3333H20.9511L18.8942 21.4413C18.5308 22.167 17.521 22.1685 17.1362 21.4987L17.0717 21.3653L13.9565 13.5859L12.5761 16.7348C12.4367 17.053 12.144 17.2726 11.8071 17.3225L11.6603 17.3333H9C8.44771 17.3333 8 16.8856 8 16.3333C8 15.827 8.3762 15.4087 8.86431 15.3424L9 15.3333H11.0068L13.0823 10.5985L11.0068 15.3333Z" fill="#313048"/>
</svg>
