<svg width="32" height="32" viewBox="0 0 32 32" fill="none" xmlns="http://www.w3.org/2000/svg">
<path d="M11.0586 18.6667L8.70259 28.0908C8.45397 29.0853 9.68448 29.7654 10.3943 29.0257L26.3881 12.3591C26.9981 11.7234 26.5476 10.6667 25.6666 10.6667H19.7207L21.9486 3.98291C22.1645 3.33538 21.6825 2.66669 21 2.66669H11.6666C11.2201 2.66669 10.8278 2.96266 10.7051 3.39197L6.7051 17.392C6.52258 18.0308 7.00224 18.6667 7.66662 18.6667H11.0586ZM17.3846 11.3505C17.1688 11.998 17.6507 12.6667 18.3333 12.6667H23.321L11.5549 24.9277L13.3095 17.9092C13.4673 17.2781 12.99 16.6667 12.3394 16.6667H8.99235L12.4209 4.66669H19.6125L17.3846 11.3505Z" fill="#313048"/>
</svg>
