<svg width="32" height="32" viewBox="0 0 32 32" fill="none" xmlns="http://www.w3.org/2000/svg">
<path d="M4.58769 13.2743C2.02285 15.8391 2.02285 19.9975 4.58769 22.5624C6.84737 24.822 10.344 25.0909 12.898 23.3689L18.5732 29.0441C18.9758 29.4467 19.6286 29.4467 20.0312 29.0441C20.3972 28.6781 20.4305 28.1053 20.131 27.7017L20.0312 27.5861L14.4081 21.9616C16.4263 19.3846 16.2489 15.6473 13.8758 13.2743C11.311 10.7094 7.15253 10.7094 4.58769 13.2743ZM16.0337 2.66455C9.69314 2.66455 4.38611 7.08969 3.0325 13.0201C3.2206 12.7812 3.4249 12.5514 3.64488 12.3315C4.34933 11.627 5.15371 11.0834 6.01239 10.7006C7.26976 8.32394 9.35011 6.44835 11.8737 5.45223L11.7313 5.68436C11.0145 6.87579 10.4364 8.3661 10.031 10.0566C10.6962 10.125 11.3527 10.2759 11.9852 10.5106C12.8276 7.00715 14.4158 4.66455 16.0337 4.66455L16.1879 4.67162C17.8752 4.82596 19.5051 7.49525 20.2621 11.3329L13.5986 11.3319C14.0296 11.6183 14.4386 11.9515 14.8186 12.3315C15.1326 12.6454 15.4149 12.9798 15.6654 13.3305L20.563 13.3325C20.6537 14.1862 20.7025 15.0791 20.7025 15.9999C20.7025 17.4126 20.5876 18.7597 20.3828 20.0001L16.8557 20.0002C16.752 20.3811 16.6191 20.7561 16.457 21.1216L16.2851 21.4839L16.1216 21.7898L16.3331 21.9992L19.9523 21.9996C19.6827 22.9976 19.3515 23.8896 18.9769 24.6455L20.4508 26.1224C21.1067 24.9785 21.64 23.5777 22.0227 22.0008L25.6528 21.9998C24.4663 23.8981 22.7334 25.4199 20.6744 26.345L20.9741 26.6434L21.1403 26.8304C21.4342 27.2241 21.6001 27.6628 21.6444 28.1008C26.2056 25.9832 29.3691 21.361 29.3691 15.9999C29.3691 8.63501 23.3987 2.66455 16.0337 2.66455ZM12.4178 14.7323C14.1774 16.4919 14.1774 19.3447 12.4178 21.1044C10.6582 22.864 7.8053 22.864 6.0457 21.1044C4.28609 19.3447 4.28609 16.4919 6.0457 14.7323C7.8053 12.9727 10.6582 12.9727 12.4178 14.7323ZM22.5759 13.3334L27.0526 13.3324L27.0631 13.3726C27.2632 14.2158 27.3691 15.0955 27.3691 15.9999C27.3691 17.408 27.1124 18.7561 26.6432 20L22.412 20.0012C22.6018 18.7354 22.7025 17.3906 22.7025 15.9999C22.7025 15.0883 22.6592 14.1963 22.5759 13.3334ZM20.1923 5.45216L20.2229 5.46378C22.9527 6.55008 25.1607 8.66654 26.3669 11.3331L22.3025 11.3323C21.8847 8.99574 21.1556 6.96158 20.1923 5.45216Z" fill="#313048"/>
</svg>
