<svg width="32" height="32" viewBox="0 0 32 32" fill="none" xmlns="http://www.w3.org/2000/svg">
<path d="M28.3329 17.3334C28.8391 17.3334 29.2575 17.7096 29.3237 18.1977L29.3329 18.3334V25C29.3329 27.3107 27.5243 29.199 25.2454 29.3265L24.9995 29.3333L18.7758 29.3336C19.4908 28.8196 20.0734 28.133 20.4627 27.3348L24.9995 27.3333C26.2238 27.3333 27.2278 26.3905 27.3251 25.1914L27.3329 25V18.3334C27.3329 17.7811 27.7806 17.3334 28.3329 17.3334ZM15.6662 12C18.0594 12 19.9995 13.9401 19.9995 16.3334V25C19.9995 27.3933 18.0594 29.3333 15.6662 29.3333H6.99955C4.60632 29.3333 2.66622 27.3933 2.66622 25V16.3334C2.66622 13.9401 4.60632 12 6.99955 12H15.6662ZM10.2897 23.1379L10.1544 23.2594L6.21742 27.199C6.46192 27.286 6.7252 27.3333 6.99955 27.3333H15.6662C15.9406 27.3333 16.2038 27.286 16.4483 27.199L12.5114 23.2594C11.9473 22.6953 11.0795 22.6201 10.4344 23.0338L10.2897 23.1379ZM15.6662 14H6.99955C5.71089 14 4.66622 15.0447 4.66622 16.3334V25C4.66622 25.2744 4.71356 25.5376 4.80053 25.7822L8.74016 21.8452C10.1124 20.4729 12.3018 20.4158 13.7421 21.6737L13.9256 21.8452L17.8652 25.7822C17.9522 25.5376 17.9995 25.2744 17.9995 25V16.3334C17.9995 15.0447 16.9549 14 15.6662 14ZM14.6662 16C15.4026 16 15.9995 16.597 15.9995 17.3334C15.9995 18.0697 15.4026 18.6667 14.6662 18.6667C13.9298 18.6667 13.3329 18.0697 13.3329 17.3334C13.3329 16.597 13.9298 16 14.6662 16ZM24.9995 2.66669C27.3103 2.66669 29.1985 4.47529 29.326 6.75412L29.3329 7.00002V13.6667C29.3329 14.219 28.8852 14.6667 28.3329 14.6667C27.8266 14.6667 27.4082 14.2905 27.342 13.8024L27.3329 13.6667V7.00002C27.3329 5.77579 26.3901 4.77176 25.1909 4.67442L24.9995 4.66669H18.3329C17.7806 4.66669 17.3329 4.21897 17.3329 3.66669C17.3329 3.16043 17.7091 2.74203 18.1972 2.67582L18.3329 2.66669H24.9995ZM13.6662 2.66669C14.2185 2.66669 14.6662 3.1144 14.6662 3.66669C14.6662 4.17295 14.29 4.59134 13.8019 4.65756L13.6662 4.66669H6.99955C5.77532 4.66669 4.77129 5.6095 4.67395 6.80865L4.66622 7.00002L4.66616 11.5362C3.86737 11.9255 3.1803 12.5084 2.66602 13.2238L2.66622 7.00002C2.66622 4.68931 4.47482 2.80103 6.75365 2.67355L6.99955 2.66669H13.6662Z" fill="#313048"/>
</svg>
