<svg width="32" height="32" viewBox="0 0 32 32" fill="none" xmlns="http://www.w3.org/2000/svg">
<path d="M23.6667 4C26.0599 4 28 5.9401 28 8.33333V23.6667C28 26.0599 26.0599 28 23.6667 28H8.33333C5.9401 28 4 26.0599 4 23.6667V8.33333C4 5.9401 5.9401 4 8.33333 4H23.6667ZM23.6667 6H8.33333C7.04467 6 6 7.04467 6 8.33333V23.6667C6 24.9553 7.04467 26 8.33333 26H23.6667C24.9553 26 26 24.9553 26 23.6667V8.33333C26 7.04467 24.9553 6 23.6667 6ZM10.3333 18C11.2538 18 12 18.7462 12 19.6667C12 20.5871 11.2538 21.3333 10.3333 21.3333C9.41286 21.3333 8.66667 20.5871 8.66667 19.6667C8.66667 18.7462 9.41286 18 10.3333 18ZM16 18C16.9205 18 17.6667 18.7462 17.6667 19.6667C17.6667 20.5871 16.9205 21.3333 16 21.3333C15.0795 21.3333 14.3333 20.5871 14.3333 19.6667C14.3333 18.7462 15.0795 18 16 18ZM10.3333 11.3333C11.2538 11.3333 12 12.0795 12 13C12 13.9205 11.2538 14.6667 10.3333 14.6667C9.41286 14.6667 8.66667 13.9205 8.66667 13C8.66667 12.0795 9.41286 11.3333 10.3333 11.3333ZM16 11.3333C16.9205 11.3333 17.6667 12.0795 17.6667 13C17.6667 13.9205 16.9205 14.6667 16 14.6667C15.0795 14.6667 14.3333 13.9205 14.3333 13C14.3333 12.0795 15.0795 11.3333 16 11.3333ZM21.6667 11.3333C22.5871 11.3333 23.3333 12.0795 23.3333 13C23.3333 13.9205 22.5871 14.6667 21.6667 14.6667C20.7462 14.6667 20 13.9205 20 13C20 12.0795 20.7462 11.3333 21.6667 11.3333Z" fill="#313048"/>
</svg>
